<mxfile host="app.diagrams.net" modified="2022-05-24T00:37:59.823Z" agent="5.0 (Macintosh; Intel Mac OS X 10_15_7) AppleWebKit/537.36 (KHTML, like Gecko) Chrome/101.0.4951.64 Safari/537.36" etag="DYYf3TZ81Nn0-bfT2eV3" version="18.0.7" type="github">
  <diagram id="tcYJndX66Y-vOp1nxndj" name="Page-1">
    <mxGraphModel dx="740" dy="483" grid="1" gridSize="10" guides="1" tooltips="1" connect="1" arrows="1" fold="1" page="1" pageScale="1" pageWidth="827" pageHeight="1169" math="0" shadow="0">
      <root>
        <mxCell id="0" />
        <mxCell id="1" parent="0" />
        <mxCell id="k5kb9Bjzsu8fPTSe01cI-55" value="" style="rounded=0;whiteSpace=wrap;html=1;labelBackgroundColor=default;sketch=0;fontSize=10;fontColor=#999999;fillColor=default;strokeColor=none;" parent="1" vertex="1">
          <mxGeometry x="100" y="100" width="660" height="380" as="geometry" />
        </mxCell>
        <mxCell id="k5kb9Bjzsu8fPTSe01cI-2" value="" style="rounded=0;whiteSpace=wrap;html=1;" parent="1" vertex="1">
          <mxGeometry x="140" y="296" width="200" height="154" as="geometry" />
        </mxCell>
        <mxCell id="k5kb9Bjzsu8fPTSe01cI-9" value="" style="shape=image;verticalLabelPosition=bottom;labelBackgroundColor=default;verticalAlign=top;aspect=fixed;imageAspect=0;image=https://www.webopixel.net/blog/wp-content/uploads/2019/09/laravel6-icon.png;" parent="1" vertex="1">
          <mxGeometry x="161.25" y="311" width="157.5" height="126" as="geometry" />
        </mxCell>
        <mxCell id="k5kb9Bjzsu8fPTSe01cI-10" value="" style="sketch=0;pointerEvents=1;shadow=0;dashed=0;html=1;strokeColor=none;fillColor=#505050;labelPosition=center;verticalLabelPosition=bottom;verticalAlign=top;outlineConnect=0;align=center;shape=mxgraph.office.devices.laptop;" parent="1" vertex="1">
          <mxGeometry x="186" y="140" width="119.41" height="70" as="geometry" />
        </mxCell>
        <mxCell id="k5kb9Bjzsu8fPTSe01cI-12" value="&lt;b&gt;サーバー&lt;/b&gt;" style="rounded=0;labelBackgroundColor=default;whiteSpace=wrap;html=1;fontColor=default;strokeColor=none;" parent="1" vertex="1">
          <mxGeometry x="150" y="280" width="60" height="30" as="geometry" />
        </mxCell>
        <mxCell id="k5kb9Bjzsu8fPTSe01cI-13" value="" style="endArrow=classic;html=1;rounded=0;fontColor=default;strokeWidth=2;" parent="1" edge="1">
          <mxGeometry width="50" height="50" relative="1" as="geometry">
            <mxPoint x="230" y="220" as="sourcePoint" />
            <mxPoint x="230" y="290" as="targetPoint" />
          </mxGeometry>
        </mxCell>
        <mxCell id="k5kb9Bjzsu8fPTSe01cI-15" value="" style="endArrow=classic;html=1;rounded=0;fontColor=default;strokeWidth=2;" parent="1" edge="1">
          <mxGeometry width="50" height="50" relative="1" as="geometry">
            <mxPoint x="260" y="290" as="sourcePoint" />
            <mxPoint x="260" y="220" as="targetPoint" />
          </mxGeometry>
        </mxCell>
        <mxCell id="k5kb9Bjzsu8fPTSe01cI-16" value="" style="whiteSpace=wrap;html=1;aspect=fixed;labelBackgroundColor=default;fontColor=default;" parent="1" vertex="1">
          <mxGeometry x="400" y="140" width="310" height="310" as="geometry" />
        </mxCell>
        <mxCell id="k5kb9Bjzsu8fPTSe01cI-18" value="" style="whiteSpace=wrap;html=1;aspect=fixed;labelBackgroundColor=default;fontColor=default;" parent="1" vertex="1">
          <mxGeometry x="420" y="170" width="260" height="260" as="geometry" />
        </mxCell>
        <mxCell id="k5kb9Bjzsu8fPTSe01cI-50" style="edgeStyle=orthogonalEdgeStyle;rounded=0;orthogonalLoop=1;jettySize=auto;html=1;exitX=0.25;exitY=0;exitDx=0;exitDy=0;entryX=0.25;entryY=1;entryDx=0;entryDy=0;fontColor=#999999;endSize=10;strokeWidth=2;" parent="1" source="k5kb9Bjzsu8fPTSe01cI-19" target="k5kb9Bjzsu8fPTSe01cI-20" edge="1">
          <mxGeometry relative="1" as="geometry" />
        </mxCell>
        <mxCell id="k5kb9Bjzsu8fPTSe01cI-19" value="" style="whiteSpace=wrap;html=1;aspect=fixed;labelBackgroundColor=default;fontColor=default;" parent="1" vertex="1">
          <mxGeometry x="520" y="281" width="130" height="130" as="geometry" />
        </mxCell>
        <mxCell id="k5kb9Bjzsu8fPTSe01cI-53" style="edgeStyle=orthogonalEdgeStyle;rounded=0;orthogonalLoop=1;jettySize=auto;html=1;exitX=0.5;exitY=1;exitDx=0;exitDy=0;entryX=0.5;entryY=0;entryDx=0;entryDy=0;fontSize=10;fontColor=#999999;endSize=10;strokeWidth=2;" parent="1" source="k5kb9Bjzsu8fPTSe01cI-20" target="k5kb9Bjzsu8fPTSe01cI-19" edge="1">
          <mxGeometry relative="1" as="geometry" />
        </mxCell>
        <mxCell id="k5kb9Bjzsu8fPTSe01cI-20" value="&lt;b&gt;遺伝的アルゴリズム&lt;/b&gt;" style="rounded=0;whiteSpace=wrap;html=1;labelBackgroundColor=default;fontColor=default;" parent="1" vertex="1">
          <mxGeometry x="520" y="190" width="130" height="50" as="geometry" />
        </mxCell>
        <mxCell id="k5kb9Bjzsu8fPTSe01cI-21" value="" style="endArrow=classic;html=1;rounded=0;fontColor=default;entryX=-0.003;entryY=0.372;entryDx=0;entryDy=0;entryPerimeter=0;endSize=10;strokeWidth=2;" parent="1" target="k5kb9Bjzsu8fPTSe01cI-19" edge="1">
          <mxGeometry width="50" height="50" relative="1" as="geometry">
            <mxPoint x="360" y="330" as="sourcePoint" />
            <mxPoint x="480" y="330" as="targetPoint" />
          </mxGeometry>
        </mxCell>
        <mxCell id="k5kb9Bjzsu8fPTSe01cI-22" value="" style="endArrow=classic;html=1;rounded=0;fontColor=default;exitX=0;exitY=0.75;exitDx=0;exitDy=0;endSize=10;strokeWidth=2;" parent="1" source="k5kb9Bjzsu8fPTSe01cI-19" edge="1">
          <mxGeometry width="50" height="50" relative="1" as="geometry">
            <mxPoint x="490" y="360" as="sourcePoint" />
            <mxPoint x="360" y="379" as="targetPoint" />
          </mxGeometry>
        </mxCell>
        <mxCell id="k5kb9Bjzsu8fPTSe01cI-24" value="" style="shape=image;verticalLabelPosition=bottom;labelBackgroundColor=default;verticalAlign=top;aspect=fixed;imageAspect=0;image=https://hogetech.info/wp-content/uploads/2022/01/1Wpeac8GYxcU02Sr2DPo6uw.png;" parent="1" vertex="1">
          <mxGeometry x="535" y="321" width="100" height="50" as="geometry" />
        </mxCell>
        <mxCell id="k5kb9Bjzsu8fPTSe01cI-30" value="&lt;b&gt;&lt;font color=&quot;#999999&quot;&gt;Google Cloud Platform&lt;/font&gt;&lt;/b&gt;" style="rounded=0;labelBackgroundColor=default;whiteSpace=wrap;html=1;fontColor=default;strokeColor=none;" parent="1" vertex="1">
          <mxGeometry x="425" y="124" width="150" height="30" as="geometry" />
        </mxCell>
        <mxCell id="k5kb9Bjzsu8fPTSe01cI-34" value="App Engine" style="sketch=0;html=1;verticalAlign=top;labelPosition=center;verticalLabelPosition=bottom;align=center;spacingTop=-6;fontSize=11;fontStyle=1;fontColor=#999999;shape=image;aspect=fixed;imageAspect=0;image=data:image/svg+xml,PHN2ZyB4bWxucz0iaHR0cDovL3d3dy53My5vcmcvMjAwMC9zdmciIHhtbG5zOnY9Imh0dHBzOi8vdmVjdGEuaW8vbmFubyIgd2lkdGg9IjIwIiBoZWlnaHQ9IjE2LjAyMDAwMDQ1Nzc2MzY3MiIgZmlsbC1ydWxlPSJldmVub2RkIiB2aWV3Qm94PSI4Ljk0MDY5NjcxNjMwODU5NGUtOCAwIDIwIDE2LjAyMDAwMDQ1Nzc2MzY3MiI+JiN4YTsJPHN0eWxlIHR5cGU9InRleHQvY3NzIj4mI3hhOwkuc3Qwe2ZpbGw6IzQyODVmNDt9JiN4YTsJLnN0MXtmaWxsOiNhZWNiZmE7fSYjeGE7CS5zdDJ7ZmlsbDojNjY5ZGY2O30mI3hhOwk8L3N0eWxlPiYjeGE7CTxwYXRoIGNsYXNzPSJzdDAiIGQ9Ik0xMi4zIDcuMjZsLTEuMjIgMS4yMkExLjcxIDEuNzEgMCAwIDEgMTAgMTEuNDlhMS43NCAxLjc0IDAgMCAxLTEuMzMtLjY0bC0xLjIyIDEuMjJhMy40MyAzLjQzIDAgMCAwIDUuOTg0LTEuMzgxQTMuNDMgMy40MyAwIDAgMCAxMi4zIDcuMjZ6Ii8+JiN4YTsJPHBhdGggY2xhc3M9InN0MSIgZD0iTTEwIDMuNTJhNi4yNSA2LjI1IDAgMCAwIDAgMTIuNSA2LjI1IDYuMjUgMCAwIDAgMC0xMi41bTAgMTAuNzRhNC40NSA0LjQ1IDAgMCAxLTMuMTU3LTcuNTk3QTQuNDUgNC40NSAwIDAgMSAxNC40NCA5LjgyIDQuNDQgNC40NCAwIDAgMSAxMCAxNC4yNiIvPiYjeGE7CTxwYXRoIGNsYXNzPSJzdDIiIGQ9Ik0xOS42MiA5LjE2bC0yLjU2LS44MWE3LjEgNy4xIDAgMCAxIC4xNyAxLjUzIDcuNjIgNy42MiAwIDAgMS0uMDggMS4wOGgyLjQ3YS40NC40NCAwIDAgMCAuMzgtLjQydi0xYS40NC40NCAwIDAgMC0uMzgtLjQyTTEwIDIuNzhhNy40OCA3LjQ4IDAgMCAxIDEuNS4xNUwxMC41OC4zOGMtLjA3LS4yMi0uMjEtLjM4LS40Mi0uMzhoLS4zOGEuNDUuNDUgMCAwIDAtLjQyLjM4bC0uOCAyLjU0QTcuNjQgNy42NCAwIDAgMSAxMCAyLjc4bS03LjIzIDcuMWE3LjEgNy4xIDAgMCAxIC4xNy0xLjUzbC0yLjU2LjgxYS40NC40NCAwIDAgMC0uMzguNDJ2MWEuNDQuNDQgMCAwIDAgLjM4LjQyaDIuNDdhNy42MiA3LjYyIDAgMCAxLS4wOC0xLjA4Ii8+JiN4YTsJPHBhdGggY2xhc3M9InN0MSIgZD0iTTEwIDcuMjZhMi41IDIuNSAwIDEgMCAwIDUgMi41IDIuNSAwIDEgMCAwLTV6bTAgMy43NWExLjI1IDEuMjUgMCAxIDEgMC0yLjUgMS4yNSAxLjI1IDAgMCAxIDEuMjUgMS4yNUExLjI1IDEuMjUgMCAwIDEgMTAgMTEuMDJ6Ii8+JiN4YTs8L3N2Zz4=;labelBackgroundColor=default;imageBackground=default;" parent="1" vertex="1">
          <mxGeometry x="450" y="158.1" width="32" height="25.9" as="geometry" />
        </mxCell>
        <mxCell id="k5kb9Bjzsu8fPTSe01cI-39" value="" style="editableCssRules=.*;shape=image;verticalLabelPosition=bottom;labelBackgroundColor=#ffffff;verticalAlign=top;aspect=fixed;imageAspect=0;image=data:image/svg+xml,PHN2ZyB4bWxucz0iaHR0cDovL3d3dy53My5vcmcvMjAwMC9zdmciIHhtbG5zOnY9Imh0dHBzOi8vdmVjdGEuaW8vbmFubyIgd2lkdGg9IjE3LjMyOTk5OTkyMzcwNjA1NSIgaGVpZ2h0PSIxOS42MTAwMDA2MTAzNTE1NjIiIHZpZXdCb3g9IjAgMCAxNy4zMjk5OTk5MjM3MDYwNTUgMTkuNjEwMDAwNjEwMzUxNTYyIj4mI3hhOwk8c3R5bGUgdHlwZT0idGV4dC9jc3MiPiYjeGE7CS5zdDB7ZmlsbDojNDI4NWY0O30mI3hhOwkuc3Qxe2ZpbGw6IzY2OWRmNjt9JiN4YTsJLnN0MntmaWxsOiNhZWNiZmE7fSYjeGE7CTwvc3R5bGU+JiN4YTsJPHBhdGggY2xhc3M9InN0MCIgZD0iTTEyLjE4IDcuOThMMTEgNy4yOWwtMy41MiA2LjEgMS4xOC42OCAzLjUyLTIuMDN6IiBmaWxsPSIjNDI4NWY0Ii8+JiN4YTsJPHBhdGggY2xhc3M9InN0MSIgZD0iTTYuMzIgMTIuNzJsMy41My02LjA5LTEuMTktLjY5LTMuNTIgMi4wNHY0LjA2eiIgZmlsbD0iIzY2OWRmNiIvPiYjeGE7CTxwYXRoIGNsYXNzPSJzdDIiIGQ9Ik0zLjc1IDcuOThMMCA1LjgxdjkuMmw3Ljk3IDQuNnYtNC4zM2wtNC4yMi0yLjQ0em05LjEzLTEuMmwzLjc2LTIuMTdMOC42NiAwIC42OCA0LjYxbDMuNzYgMi4xNyA0LjIyLTIuNDR6TTkuMzUgMTkuNjFsNy45OC00LjZ2LTkuMmwtMy43NiAyLjE3djQuODZsLTQuMjIgMi40NHoiIGZpbGw9IiNhZWNiZmEiLz4mI3hhOzwvc3ZnPg==;sketch=0;fontColor=default;html=1;imageBackground=default;" parent="1" vertex="1">
          <mxGeometry x="411.6" y="127" width="20.4" height="24" as="geometry" />
        </mxCell>
        <mxCell id="k5kb9Bjzsu8fPTSe01cI-40" value="&lt;b&gt;&lt;font color=&quot;#999999&quot;&gt;API&lt;/font&gt;&lt;/b&gt;" style="rounded=0;labelBackgroundColor=default;whiteSpace=wrap;html=1;fontColor=default;strokeColor=none;" parent="1" vertex="1">
          <mxGeometry x="522.74" y="275" width="25" height="10" as="geometry" />
        </mxCell>
        <mxCell id="k5kb9Bjzsu8fPTSe01cI-42" value="&lt;b&gt;リクエスト&lt;/b&gt;" style="rounded=0;labelBackgroundColor=default;whiteSpace=wrap;html=1;fontColor=default;strokeColor=none;" parent="1" vertex="1">
          <mxGeometry x="140" y="240" width="81.25" height="30" as="geometry" />
        </mxCell>
        <mxCell id="k5kb9Bjzsu8fPTSe01cI-43" value="&lt;b&gt;レスポンス&lt;/b&gt;" style="rounded=0;labelBackgroundColor=default;whiteSpace=wrap;html=1;fontColor=default;strokeColor=none;" parent="1" vertex="1">
          <mxGeometry x="270" y="240" width="81.25" height="30" as="geometry" />
        </mxCell>
        <mxCell id="k5kb9Bjzsu8fPTSe01cI-44" value="&lt;b style=&quot;font-size: 10px;&quot;&gt;APIリクエスト&lt;/b&gt;" style="rounded=0;labelBackgroundColor=default;whiteSpace=wrap;html=1;fontColor=default;strokeColor=none;fontSize=10;" parent="1" vertex="1">
          <mxGeometry x="387" y="310" width="93" height="17" as="geometry" />
        </mxCell>
        <mxCell id="k5kb9Bjzsu8fPTSe01cI-46" value="&lt;b style=&quot;font-size: 10px;&quot;&gt;JSON&lt;/b&gt;" style="rounded=0;labelBackgroundColor=default;whiteSpace=wrap;html=1;fontColor=default;strokeColor=none;fontSize=10;" parent="1" vertex="1">
          <mxGeometry x="384" y="381" width="103" height="21" as="geometry" />
        </mxCell>
        <mxCell id="k5kb9Bjzsu8fPTSe01cI-47" value="&lt;font color=&quot;#999999&quot;&gt;&lt;b&gt;機会学習モデル&lt;/b&gt;&lt;/font&gt;" style="rounded=0;labelBackgroundColor=default;whiteSpace=wrap;html=1;fontColor=default;strokeColor=none;" parent="1" vertex="1">
          <mxGeometry x="522.74" y="184" width="87.26" height="10" as="geometry" />
        </mxCell>
        <mxCell id="k5kb9Bjzsu8fPTSe01cI-52" value="&lt;b style=&quot;font-size: 10px;&quot;&gt;モデルの呼び出し&lt;/b&gt;" style="rounded=0;labelBackgroundColor=default;whiteSpace=wrap;html=1;fontColor=default;strokeColor=none;fillColor=none;fontSize=10;" parent="1" vertex="1">
          <mxGeometry x="455" y="246" width="100" height="30" as="geometry" />
        </mxCell>
        <mxCell id="k5kb9Bjzsu8fPTSe01cI-54" value="&lt;b&gt;推論結果&lt;/b&gt;" style="rounded=0;labelBackgroundColor=default;whiteSpace=wrap;html=1;fontColor=default;strokeColor=none;fillColor=none;fontSize=10;" parent="1" vertex="1">
          <mxGeometry x="575" y="244" width="85" height="30" as="geometry" />
        </mxCell>
      </root>
    </mxGraphModel>
  </diagram>
</mxfile>
